<svg width="48" height="48" viewBox="0 0 48 48" fill="none" xmlns="http://www.w3.org/2000/svg">
<rect width="48" height="48" rx="16" fill="#D9D9D9" fill-opacity="0.76"/>
<rect width="48" height="48" rx="16" fill="url(#paint0_linear_172_1103)"/>
<rect width="48" height="48" rx="16" fill="url(#paint1_linear_172_1103)"/>
<path d="M16.6575 10.4627C17.4781 10.3672 18.5528 10.5194 19.3723 10.5554C20.3978 10.6005 21.4559 10.664 22.4768 10.69C24.4383 10.7552 26.4006 10.7906 28.3631 10.7964C30.0111 10.7978 31.5691 10.7504 33.2278 10.9068C37.425 11.3026 39.653 16.0907 37.1997 19.5418C36.5337 20.4946 35.1153 21.4389 33.9476 21.6055C31.6195 21.9377 28.3271 22.0643 27.6128 24.8995C27.0215 27.2465 28.8512 28.5256 30.5951 29.5654C31.601 30.1652 32.5274 31.7389 32.7169 32.9234C32.9246 34.2468 32.6045 35.5992 31.8262 36.6866C30.9881 37.8362 29.7276 38.6008 28.3256 38.8102C26.8734 39.0341 25.4212 38.6264 24.2442 37.7568C23.8243 37.4409 23.3055 36.9091 22.935 36.5347C22.4926 36.0859 22.0473 35.64 21.5991 35.197C19.1606 32.7807 16.8083 31.127 17.2506 27.1963C17.7306 22.9318 22.7496 22.9957 23.1516 18.7817C23.3117 17.1033 22.7575 15.7729 21.7082 14.4958C21.8759 15.9296 21.7109 17.277 20.463 18.1777C19.2217 19.0737 17.8464 18.6221 16.4586 18.7151C15.2297 18.7975 13.8637 19.4421 13.1329 20.4605C12.742 20.9963 12.5092 21.547 12.2481 22.149L12.1723 22.0844C8.61294 19.0466 9.14746 14.138 12.9672 11.5235C14.1151 10.7378 15.3031 10.5725 16.6575 10.4627Z" fill="#FEFEFE"/>
<defs>
<linearGradient id="paint0_linear_172_1103" x1="48" y1="47.9531" x2="0.0938906" y2="-0.0468323" gradientUnits="userSpaceOnUse">
<stop offset="0.307692" stop-color="#00AAFF"/>
<stop offset="1" stop-color="#0059FF"/>
</linearGradient>
<linearGradient id="paint1_linear_172_1103" x1="48" y1="47.9531" x2="0.0938906" y2="-0.0468323" gradientUnits="userSpaceOnUse">
<stop offset="0.307692" stop-color="#FFAE00"/>
<stop offset="1" stop-color="#FF5911"/>
</linearGradient>
</defs>
</svg>
